# xmcd
#
# Track frame offsets:
#	150
#	18671
#	36087
#	56875
#	74277
#	92312
#	113100
#	131002
#	150696
#	167551
#	194484
#	213416
#	227019
#	242489
#	262481
#
# Disc length: 3779 seconds
#
# Revision: 0
# Processed by: cddbd v1.4PL0 Copyright (c) Steve Scherf et al.
# Submitted via: EasyCDDAExtractor 4.6.0.1
#
DISCID=d40ec10f
DTITLE=Aaliyah
DYEAR=2001
DGENRE=rn b
TTITLE0=We Need A Resoultion
TTITLE1=02
TTITLE2=03
TTITLE3=More Than A Women
TTITLE4=never no more
TTITLE5=I Care For You
TTITLE6=Extra Smooth
TTITLE7=Read Between The Lines
TTITLE8=U Got Nerve
TTITLE9=10
TTITLE10=11.Aaliyah  - Its Whatever
TTITLE11=I Can  Be
TTITLE12=Those Were The Days
TTITLE13=What If
TTITLE14=Try Again
EXTD=
EXTT0=
EXTT1=
EXTT2=
EXTT3=
EXTT4=
EXTT5=
EXTT6=
EXTT7=
EXTT8=
EXTT9=
EXTT10=
EXTT11=
EXTT12=
EXTT13=
EXTT14=
PLAYORDER=
